# xmcd
#
# Track frame offsets: 
#        150
#        27140
#        53922
#        82327
#        109652
#
# Disc length: 1815 seconds
#
# Revision: 8
# Processed by: cddbd v1.5.2PL0 Copyright (c) Steve Scherf et al.
# Submitted via: ExactAudioCopy v1.3
#
DISCID=3a071505
DTITLE=小柳ゆき - あなたのキスを数えましょう OpusⅡ
DYEAR=1999
DGENRE=JPop
TTITLE0=あなたのキスを数えましょう OpusⅡ
TTITLE1=あなたのキスを数えましょう OpusⅡ(English Version)
TTITLE2=あなたのキスを数えましょう (Acoustic Version)
TTITLE3=あなたのキスを数えましょう OpusⅡ (less yuki mix)
TTITLE4=あなたのキスを数えましょう OpusⅡ (less kashif mix)
EXTD=YEAR: 2000
EXTT0=
EXTT1=
EXTT2=
EXTT3=
EXTT4=
PLAYORDER=
